<?xml version="1.0" encoding="UTF-8"?>
<svg id="Layer_1" data-name="Layer 1" xmlns="http://www.w3.org/2000/svg" viewBox="0 0 536.22 28.18">
  <path d="M2.12,1.7v24.42l-2.12.81v.5h9.93c6.14,0,9.54-2.4,9.54-7.53s-3.28-6.68-6.14-7.03c2.7-.54,4.83-2.43,4.83-6.1S15.68.39,9.93.39H0v.5l2.12.81h0ZM9.46,13.48c4.13,0,6.41,1.58,6.41,6.45s-2.16,6.38-6.26,6.38h-4.17v-12.83h4.02ZM9.39,1.51c3.28,0,5.25,2.13,5.25,5.18,0,3.48-1.74,5.64-4.98,5.64h-4.21V1.51h3.94ZM41.1,26.12l-2.47.77v.54h8.58v-.5l-2.47-.81L34.69,0h-.73l-9.31,26.12-2.47.81v.5h6.34v-.54l-2.47-.77,2.24-6.57h10.39l2.43,6.57h0ZM33.3,4.91l4.91,13.41h-9.5l4.6-13.41h0Z"/>
  <polygon points="80.97 26.93 80.97 27.43 88.54 27.43 88.54 26.89 86.42 26.12 86.42 15.99 93.03 1.7 95.15 .89 95.15 .39 89.59 .39 89.59 .93 91.71 1.7 85.53 15.07 79.39 1.7 81.71 .93 81.71 .39 73.67 .39 73.67 .89 75.8 1.7 83.1 16.81 83.1 26.12 80.97 26.93 80.97 26.93"/>
  <path d="M108.05.97c3.01,0,4.75,1.85,4.75,4.44,0,1.16-.5,2.28-1.47,2.97.46.12.89.19,1.24.19,1.58,0,2.63-1.39,2.63-3.13,0-3.09-2.82-5.45-7.11-5.45s-7.49,2.47-7.49,6.95c0,9.23,12.79,6.76,12.79,14.84,0,3.32-2.16,5.06-5.64,5.06s-5.53-1.74-5.53-4.64c0-1.43.77-2.59,1.58-3.17-.42-.12-.73-.19-1.2-.19-1.74,0-2.94,1.66-2.94,3.59,0,3.13,3.55,5.37,8.07,5.37,4.75,0,8.38-2.24,8.38-7.34,0-9.62-12.79-6.99-12.79-14.64,0-2.86,1.78-4.87,4.71-4.87"/>
  <path d="M137.26,26.93v.5h7.53v-.54l-2.09-.77V1.7l2.09-.77V.39h-7.53v.5l2.13.81v11.67h-10.86V1.7l2.12-.77V.39h-7.57v.5l2.12.81v24.42l-2.12.81v.5h7.57v-.54l-2.12-.77v-11.59h10.86v11.59l-2.13.81h0ZM171.18,27.82h.69V1.7l2.47-.77V.39h-6.34v.5l2.47.81v19.32L157.39.39h-5.25v.5l2.12.81v24.42l-2.47.81v.5h6.33v-.54l-2.47-.77V3.86l15.53,23.95h0ZM183.96,1.7v24.42l-2.12.81v.5h7.57v-.54l-2.12-.77V1.7l2.12-.77V.39h-7.57v.5l2.12.81h0Z"/>
  <path d="M211.35.39v.5l2.09.66-10.55,12.48V1.7l2.12-.77V.39h-7.57v.5l2.12.81v24.41l-2.12.81v.5h7.57v-.54l-2.12-.77v-9.81l2.16-2.59,8.54,13.71h5.25v-.5l-2.12-.81-9.5-14.99,7.88-9.43h.04l3.09-.81V.39h-6.88ZM244.38,13.91c0-8.11-4.44-13.87-10.97-13.87s-10.93,5.72-10.93,13.87,4.4,13.91,10.93,13.91,10.97-5.72,10.97-13.91M226.38,14.02c0-6.57,1.66-12.86,7.03-12.86s7.11,6.37,7.11,12.86-1.7,12.67-7.11,12.67-7.03-6.1-7.03-12.67M253.15,1.7l2.47-.77V.39h-8.5v.5l2.39.81,9.39,26.23h.5l9.16-26.23,2.47-.81V.39h-6.3v.54l2.51.77-6.99,20.82-7.11-20.82h0Z"/>
  <path d="M53.5,1.76v24.42l-2.13.81v.5h7.53v-.54l-2.12-.77v-10.97h3.67l6.57,12.29h5.41v-.5l-2.43-.81-6.06-11.3c3.6-.76,5.52-2.87,5.52-6.86,0-5.18-3.24-7.57-9.19-7.57h-8.89v.5l2.13.81h0ZM59.76,1.53c4.33,0,6.22,2.24,6.22,6.49s-1.89,6.18-6.22,6.18h-2.97V1.53h2.97Z"/>
  <path d="M299.74,26.12l-2.47.77v.54h8.58v-.5l-2.47-.81L293.33,0h-.73l-9.31,26.11-2.47.81v.5h6.34v-.54l-2.47-.77,2.24-6.57h10.39l2.43,6.57h0ZM291.94,4.91l4.91,13.4h-9.5l4.6-13.4h0Z"/>
  <path d="M339.96,1.62h2.01v24.49l-2.12.81v.5h7.57v-.54l-2.12-.77V1.62h2.01c3.44,0,4.13,1.24,5.1,5.02h.54V.39h-18.62v6.26h.54c1-3.79,1.66-5.02,5.1-5.02"/>
  <path d="M365.89.97c3.01,0,4.75,1.85,4.75,4.44,0,1.16-.5,2.28-1.47,2.98.46.12.89.19,1.24.19,1.58,0,2.63-1.39,2.63-3.13C373.04,2.36,370.22,0,365.93,0s-7.49,2.47-7.49,6.95c0,9.23,12.79,6.76,12.79,14.83,0,3.32-2.16,5.06-5.64,5.06s-5.52-1.74-5.52-4.64c0-1.43.77-2.59,1.58-3.17-.43-.12-.73-.19-1.2-.19-1.74,0-2.94,1.66-2.94,3.59,0,3.13,3.55,5.37,8.07,5.37,4.75,0,8.38-2.24,8.38-7.34,0-9.62-12.79-6.99-12.79-14.64,0-2.86,1.78-4.87,4.71-4.87"/>
  <path d="M312.15,1.76v24.42l-2.12.81v.5h7.53v-.54l-2.12-.77v-10.97h3.67l6.57,12.29h5.41v-.5l-2.43-.81-6.06-11.3c3.6-.76,5.52-2.87,5.52-6.86,0-5.18-3.25-7.57-9.19-7.57h-8.89v.5l2.12.81h0ZM318.41,1.53c4.33,0,6.22,2.24,6.22,6.49s-1.89,6.18-6.22,6.18h-2.97V1.53h2.97Z"/>
  <path d="M404.44,28.18c5.33,0,7.8-2.94,9.21-5.68l-.75-.43c-1.33,2.67-3.8,4.94-8.19,4.94-5.64,0-7.91-4.78-7.91-12.66,0-8.39,2.55-13.32,7.41-13.32,3.17,0,4.8,1.57,5.45,4.01.23.88.31,3.01-.6,4.26.39.16,1.33-.13,1.8-.43.46-.3,1.1-1.23,1.15-2.31C412.13,3.37,409.5,0,404.21,0c-6.31,0-11.32,4.94-11.32,14.23,0,8.27,4.19,13.95,11.56,13.95"/>
  <path d="M420.67,1.69v24.77l-2.15.82v.51h17.55v-6.47h-.59c-.98,4.04-1.64,5.37-5.6,5.37h-5.84v-12.26h3.29c2.23.23,2.59,1.25,3.29,3.88h.59v-9.01h-.59c-.74,2.7-1.06,3.8-3.37,4h-.04l-3.17.04V1.45h5.96c3.49,0,4.11.98,5.13,5.37h.59V.35h-17.2v.51l2.15.82h0ZM461.18,28.18h.71V1.69l2.51-.78V.35h-6.43v.51l2.51.82v19.59L447.2.35h-5.33v.51l2.16.82v24.77l-2.51.82v.51h6.43v-.55l-2.51-.78V3.88l15.75,24.29h0Z"/>
  <path d="M474.7,1.61h2.04v24.84l-2.15.82v.51h7.68v-.55l-2.15-.78V1.61h2.04c3.49,0,4.19,1.25,5.17,5.09h.55V.35h-18.89v6.35h.55c1.02-3.84,1.68-5.09,5.17-5.09M494.38,1.69v24.77l-2.16.82v.51h17.55v-6.47h-.59c-.98,4.04-1.65,5.37-5.6,5.37h-5.84v-12.26h3.29c2.23.23,2.59,1.25,3.29,3.88h.59v-9.01h-.59c-.74,2.7-1.06,3.8-3.37,4h-.04l-3.17.04V1.45h5.96c3.49,0,4.12.98,5.13,5.37h.59V.35h-17.2v.51l2.16.82h0Z"/>
  <path d="M517.29,1.94v24.42l-2.12.81v.5h7.53v-.54l-2.12-.77v-10.97h3.67l6.57,12.28h5.41v-.5l-2.43-.81-6.06-11.3c3.6-.76,5.52-2.86,5.52-6.85,0-5.18-3.24-7.57-9.19-7.57h-8.89v.5l2.12.81h0ZM523.54,1.71c4.33,0,6.22,2.24,6.22,6.49s-1.89,6.18-6.22,6.18h-2.97V1.71h2.97Z"/>
</svg>