<?xml version="1.0" encoding="utf-8"?>
<!-- Generator: Adobe Illustrator 20.1.0, SVG Export Plug-In . SVG Version: 6.00 Build 0)  -->
<svg version="1.1" id="Layer_1" xmlns="http://www.w3.org/2000/svg" xmlns:xlink="http://www.w3.org/1999/xlink" x="0px" y="0px"
	 viewBox="0 0 907.8 136.4" style="enable-background:new 0 0 907.8 136.4;" xml:space="preserve">
<style type="text/css">
	.st0{clip-path:url(#SVGID_2_);fill:#000000;}
	.st1{fill:#000000;}
	.st2{clip-path:url(#SVGID_4_);fill:#000000;}
</style>
<g>
	<defs>
		<rect id="SVGID_1_" x="1" y="3.7" width="902.6" height="132.7"/>
	</defs>
	<clipPath id="SVGID_2_">
		<use xlink:href="#SVGID_1_"  style="overflow:visible;"/>
	</clipPath>
	<path class="st0" d="M131.3,73.3c0,20.4-7.7,37.2-19.7,47.3c-12,10.3-27.3,15.8-43.5,15.8c-17.1,0-33.3-5.7-46.1-16.5
		C9.1,109.1,1,91.1,1,69.7c0-13.5,3.3-25.5,9.6-35.8C23.3,13.4,43.9,3.7,67,3.7c21.4,0,41.8,9.3,53.5,26.6L93.8,50
		C88.1,39.7,78.2,34,66.5,34c-17.1,0-31,12.5-31,34.3c0,21.9,12.5,35.8,33.6,35.8c16.5,0,28.3-11.1,28.3-30.9H131.3z"/>
	<path class="st0" d="M230.1,70.2v64.1h-33.1V83.7c0-10.3-5.7-15.8-12.7-15.8c-7.4,0-13.9,6.3-13.9,15.8v50.6h-33.1V5.7h33.1V53
		c4.8-9.8,15.1-15.1,26.7-15.1C214.9,38,230.1,49.8,230.1,70.2"/>
	<path class="st0" d="M299.7,101.2v-2.9H273c-5,0-7.5,2.2-7.5,6c0,4.6,5.3,7.5,12.7,7.5C287,111.9,295.1,107.6,299.7,101.2
		 M332.5,75.5v58.8h-32.7v-13.7c-7.4,10.1-17,15.3-29.8,15.3c-18.7,0-33.6-11.1-33.6-30.7c0-17.8,13-26.7,29.8-26.7
		c12.5,0,25.5,3.1,33.6,6.3v-9.3c0-6.7-5.3-10.3-11.5-10.3c-7.4,0-11.5,3.3-14.6,7.7l-29.1-11.3c5.8-13.2,19-23.7,43.7-23.7
		C313.8,38,332.5,50.1,332.5,75.5"/>
	<path class="st0" d="M372.6,84.9c0,15.9,10.5,23.5,24.9,23.5c10.1,0,16.6-3.9,16.6-10.8c0-3.8-1.9-6.7-5.5-8.7
		c-3.6-1.9-10.6-4.6-20.9-8.1c-0.9-0.3-1.5-0.5-2.1-0.7c-7.5-2.6-10.5-3.6-17.3-6.9c-7-3.3-10.5-6.5-14.9-11.5
		c-4.5-5-6.5-11.8-6.5-19.9c0-16.5,10.3-28.8,24-34.3c6.9-2.6,14.4-3.9,22.5-3.9c21.1,0,40,10.1,47.3,28.1l-27.3,13.5
		c-3.6-8.4-11.8-13.5-20.1-13.5c-6.9,0-12.7,3.4-12.7,9.6c0,8.7,11.1,11.1,21.6,14.1l3.3,1c13.5,3.9,20.9,6.9,29.3,12.7
		c8.4,5.8,12.5,14.4,12.5,25.5c0,25.9-23.3,41.7-51.4,41.7c-14.4,0-28.1-4.5-39.1-12.7c-11-8.1-18.2-22.1-18.2-38.7H372.6z"/>
	<path class="st0" d="M546.2,70.2v64.1h-33.1V83.7c0-10.3-5.7-15.8-12.7-15.8c-7.4,0-13.9,6.3-13.9,15.8v50.6h-33.1V5.7h33.1V53
		c4.8-9.8,15.1-15.1,26.7-15.1C531,38,546.2,49.8,546.2,70.2"/>
	<path class="st0" d="M614.7,101.2v-2.9h-26.7c-5,0-7.5,2.2-7.5,6c0,4.6,5.3,7.5,12.7,7.5C602,111.9,610,107.6,614.7,101.2
		 M647.4,75.5v58.8h-32.8v-13.7c-7.4,10.1-17,15.3-29.8,15.3c-18.7,0-33.6-11.1-33.6-30.7c0-17.8,13-26.7,29.8-26.7
		c12.5,0,25.5,3.1,33.6,6.3v-9.3c0-6.7-5.3-10.3-11.5-10.3c-7.4,0-11.5,3.3-14.6,7.7l-29.1-11.3c5.8-13.2,19-23.7,43.7-23.7
		C628.7,38,647.4,50.1,647.4,75.5"/>
</g>
<polygon class="st1" points="755.5,5.7 729.7,88.4 703.8,5.7 656.8,5.7 656.8,134.3 690.4,134.3 690.4,57.5 716.1,134.3 
	743.2,134.3 768.9,57.5 768.9,134.3 802.5,134.3 802.5,5.7 "/>
<g>
	<defs>
		<rect id="SVGID_3_" x="1" y="3.7" width="902.6" height="132.7"/>
	</defs>
	<clipPath id="SVGID_4_">
		<use xlink:href="#SVGID_3_"  style="overflow:visible;"/>
	</clipPath>
	<path class="st2" d="M870.9,101.2v-2.9h-26.7c-5,0-7.5,2.2-7.5,6c0,4.6,5.3,7.5,12.7,7.5C858.2,111.9,866.3,107.6,870.9,101.2
		 M903.6,75.5v58.8h-32.8v-13.7c-7.4,10.1-17,15.3-29.8,15.3c-18.7,0-33.6-11.1-33.6-30.7c0-17.8,13-26.7,29.8-26.7
		c12.5,0,25.6,3.1,33.6,6.3v-9.3c0-6.7-5.3-10.3-11.5-10.3c-7.4,0-11.5,3.3-14.6,7.7l-29.1-11.3c5.8-13.2,19-23.7,43.7-23.7
		C884.9,38,903.6,50.1,903.6,75.5"/>
</g>
</svg>
