<?xml version="1.0" encoding="UTF-8"?>
<svg xmlns="http://www.w3.org/2000/svg" width="150" height="58" viewBox="0 0 150 58" fill="none">
  <path d="M10.7813 18.3967C5.04152 18.3967 1.16831 14.6401 1.16831 9.13362C1.16831 3.48714 5.11151 0.0105812 10.8747 0.0105812C15.5878 0.0105812 19.4844 2.22718 20.441 6.96369H15.9378C15.3079 4.72376 13.4646 3.41714 10.9447 3.41714C7.91142 3.41714 5.6715 5.56373 5.6715 9.11029C5.6715 12.6335 7.77143 14.9901 10.9213 14.9901C13.6512 14.9901 15.6112 13.2635 16.0312 10.6269L20.511 10.6269C19.881 15.6434 15.8445 18.3967 10.7813 18.3967ZM21.6944 18V14.3601V3.97712V0.337237L28.7409 0.337237C33.244 0.337237 35.5773 2.11051 35.5773 5.28374C35.5773 7.94366 33.944 9.6236 31.2608 10.1369L36.8606 17.79V18L31.9841 18L27.3642 10.7669H26.0343V14.3601V18H21.6944ZM26.0343 7.92033H27.9709C30.3041 7.92033 31.3308 7.10369 31.3308 5.49374C31.3308 3.97712 30.3508 3.27714 28.0642 3.27714H26.0343V7.92033ZM37.5259 18V14.3601V3.97712V0.337237L49.1689 0.337237V3.4638C47.069 3.3938 45.7857 3.3938 44.339 3.3938H41.9125V7.45367H42.9858C44.479 7.45367 45.7857 7.45367 48.0023 7.43034V10.3936C45.7857 10.3469 44.479 10.3469 42.9858 10.3469H41.9125V14.9434H44.3857C45.809 14.9434 47.5356 14.9434 49.3556 14.9201V18H37.5259ZM48.9172 18C49.1738 17.3 49.6171 16.2034 49.8738 15.5267L55.217 1.78386C55.4036 1.27054 55.6136 0.757224 55.7536 0.337237L60.0468 0.337237L65.9733 15.6901L66.8599 18H62.1701C61.9601 17.3234 61.6567 16.3901 61.4234 15.6901L60.9568 14.2668H54.587L54.1203 15.6667C53.8637 16.4134 53.537 17.37 53.3503 18H48.9172ZM55.5669 11.3735H60.0001L57.8069 4.72376L55.5669 11.3735ZM64.0044 3.4638V0.337237L78.8673 0.337237V3.4638C76.7207 3.3938 75.4607 3.3938 73.8974 3.3938H73.6174V14.3601V18H69.2542V14.3601V3.3938H68.9976C67.4576 3.3938 66.151 3.3938 64.0044 3.4638ZM79.8026 18V14.3601V3.97712V0.337237L84.1891 0.337237V3.97712V14.3601V18H79.8026ZM85.6071 2.43717L84.8604 0.337237L89.6436 0.337237C89.8536 1.03721 90.0869 1.73719 90.2969 2.41384L93.7502 13.2868L97.1567 2.41384L97.81 0.337237L102.36 0.337237C102.127 1.01388 101.87 1.76052 101.637 2.3905L96.4101 16.7634C96.2701 17.16 96.1067 17.6267 96.0368 18H91.3002L85.6071 2.43717ZM103.012 18V14.3601V3.97712V0.337237L114.655 0.337237V3.4638C112.555 3.3938 111.272 3.3938 109.825 3.3938L107.399 3.3938V7.45367H108.472C109.965 7.45367 111.272 7.45367 113.488 7.43034V10.3936C111.272 10.3469 109.965 10.3469 108.472 10.3469H107.399V14.9434H109.872C111.295 14.9434 113.022 14.9434 114.842 14.9201V18H103.012Z" fill="#F8F7F2"></path>
  <path d="M59.1485 38.0256C53.4087 38.0256 49.5355 34.269 49.5355 28.7625C49.5355 23.116 53.4787 19.6395 59.2418 19.6395C63.955 19.6395 67.8516 21.8561 68.8082 26.5926H64.305C63.675 24.3527 61.8318 23.046 59.3118 23.046C56.2786 23.046 54.0387 25.1926 54.0387 28.7392C54.0387 32.2624 56.1386 34.619 59.2885 34.619C62.0184 34.619 63.9784 32.8924 64.3983 30.2558H68.8782C68.2482 35.2723 64.2117 38.0256 59.1485 38.0256ZM67.6264 37.6289C67.8831 36.9289 68.3264 35.8323 68.5831 35.1557L73.9262 21.4128C74.1129 20.8994 74.3229 20.3861 74.4629 19.9661H78.7561L84.6826 35.319L85.5692 37.6289H80.8794C80.6694 36.9523 80.366 36.019 80.1327 35.319L79.6661 33.8957H73.2963L72.8296 35.2956C72.573 36.0423 72.2463 36.9989 72.0596 37.6289H67.6264ZM74.2762 31.0025H78.7094L76.5162 24.3527L74.2762 31.0025ZM86.1666 37.6289V33.989V23.606V19.9661H92.373C97.6228 19.9661 99.9328 21.7861 99.9328 25.286C99.9328 28.6459 97.4129 30.6525 92.2097 30.6525H90.5531V33.989V37.6289H86.1666ZM90.5531 27.7592H92.1864C94.6129 27.7592 95.6629 26.9193 95.6629 25.286C95.6629 23.6994 94.6363 22.9527 92.3497 22.9527H90.5531V27.7592ZM101.132 37.6289V33.989V23.606V19.9661H105.519V23.606V33.989V37.6289H101.132ZM106.47 23.0927V19.9661H121.333V23.0927C119.186 23.0227 117.926 23.0227 116.363 23.0227H116.083V33.989V37.6289H111.72V33.989V23.0227H111.463C109.923 23.0227 108.617 23.0227 106.47 23.0927ZM118.489 37.6289C118.745 36.9289 119.189 35.8323 119.445 35.1557L124.789 21.4128C124.975 20.8994 125.185 20.3861 125.325 19.9661H129.618L135.545 35.319L136.431 37.6289H131.742C131.532 36.9523 131.228 36.019 130.995 35.319L130.528 33.8957L124.159 33.8957L123.692 35.2956C123.435 36.0423 123.109 36.9989 122.922 37.6289H118.489ZM125.139 31.0025L129.572 31.0025L127.378 24.3527L125.139 31.0025ZM137.029 37.6289V33.989V23.606V19.9661H141.415V23.606V34.3623H143.422C145.032 34.3623 146.922 34.3623 148.952 34.339V37.6289L137.029 37.6289Z" fill="#F8F7F2"></path>
  <path opacity="0.6" d="M1.79661 57.2578L1.79661 53.6179L1.79661 43.2349L1.79661 39.595H13.6029V42.7449C11.8763 42.7216 10.3597 42.7216 7.53642 42.7216H6.18313V46.6648H6.99977C8.44639 46.6648 10.0097 46.6648 12.2963 46.6415V49.7447C10.0097 49.6981 8.58639 49.6981 7.1631 49.6981H6.18313V53.6179V57.2578H1.79661ZM23.2589 57.6545C17.1225 57.6545 13.3893 53.8513 13.3893 48.4148C13.3893 43.0016 17.1225 39.2684 23.2589 39.2684C29.3954 39.2684 33.1286 43.0016 33.1286 48.5081C33.1286 53.8979 29.3954 57.6545 23.2589 57.6545ZM17.8924 48.5081C17.8924 51.9846 19.969 54.1779 23.2589 54.1779C26.5488 54.1779 28.6254 51.9846 28.6254 48.4148C28.6254 44.9382 26.5488 42.7449 23.2589 42.7449C19.969 42.7449 17.8924 44.9382 17.8924 48.5081ZM34.5534 57.2578V53.6179V43.2349V39.595H41.5998C46.103 39.595 48.4362 41.3683 48.4362 44.5416C48.4362 47.2015 46.803 48.8814 44.1197 49.3947L49.7195 57.0478V57.2578H44.843L40.2232 50.0247H38.8932V53.6179V57.2578H34.5534ZM38.8932 47.1781H40.8298C43.1631 47.1781 44.1897 46.3615 44.1897 44.7516C44.1897 43.2349 43.2097 42.535 40.9232 42.535H38.8932V47.1781ZM52.8897 57.2578C53.1463 56.5578 53.5896 55.4612 53.8463 54.7846L59.1895 41.0417C59.3761 40.5284 59.5861 40.015 59.7261 39.595H64.0193L69.9458 54.9479L70.8324 57.2578H66.1426C65.9326 56.5812 65.6293 55.6479 65.3959 54.9479L64.9293 53.5246H58.5595L58.0928 54.9246C57.8362 55.6712 57.5095 56.6278 57.3229 57.2578H52.8897ZM59.5395 50.6314H63.9726L61.7794 43.9816L59.5395 50.6314ZM71.4298 57.2578V53.6179V43.2349V39.595H78.4762C82.9794 39.595 85.3127 41.3683 85.3127 44.5416C85.3127 47.2015 83.6794 48.8814 80.9961 49.3947L86.5959 57.0478V57.2578H81.7194L77.0996 50.0247H75.7696V53.6179V57.2578H71.4298ZM75.7696 47.1781H77.7062C80.0395 47.1781 81.0661 46.3615 81.0661 44.7516C81.0661 43.2349 80.0862 42.535 77.7996 42.535H75.7696V47.1781ZM85.2439 42.7216V39.595H100.107V42.7216C97.9602 42.6516 96.7002 42.6516 95.1369 42.6516H94.857V53.6179V57.2578H90.4938V53.6179V42.6516H90.2371C88.6972 42.6516 87.3905 42.6516 85.2439 42.7216ZM101.042 57.2578V53.6179V43.2349V39.595H105.429V43.2349V53.6179V57.2578H101.042ZM114.266 57.6778C109.717 57.6778 106.73 55.3445 106.333 51.4713H110.58C110.813 53.4779 112.073 54.6912 114.336 54.6912C116.11 54.6912 117.16 54.0379 117.16 52.6846C117.16 51.2147 115.643 50.818 112.353 49.6047C108.9 48.2981 106.893 47.1781 106.893 44.3549C106.893 40.995 109.88 39.2451 113.683 39.2451C117.813 39.2451 120.753 41.3683 121.313 44.9382H117.16C116.926 43.3283 115.713 42.255 113.73 42.255C112.073 42.255 111.163 42.9316 111.163 44.0749C111.163 45.5449 112.843 45.9882 115.55 46.9681C119.213 48.2981 121.383 49.3247 121.383 52.288C121.383 55.7645 118.42 57.6778 114.266 57.6778ZM120.548 42.7216V39.595H135.411V42.7216C133.264 42.6516 132.004 42.6516 130.441 42.6516H130.161V53.6179V57.2578H125.798V53.6179V42.6516H125.541C124.001 42.6516 122.695 42.6516 120.548 42.7216ZM142.284 57.6778C137.734 57.6778 134.747 55.3445 134.351 51.4713H138.597C138.83 53.4779 140.09 54.6912 142.354 54.6912C144.127 54.6912 145.177 54.0379 145.177 52.6846C145.177 51.2147 143.66 50.818 140.37 49.6047C136.917 48.2981 134.911 47.1781 134.911 44.3549C134.911 40.995 137.897 39.2451 141.7 39.2451C145.83 39.2451 148.77 41.3683 149.33 44.9382H145.177C144.944 43.3283 143.73 42.255 141.747 42.255C140.09 42.255 139.18 42.9316 139.18 44.0749C139.18 45.5449 140.86 45.9882 143.567 46.9681C147.23 48.2981 149.4 49.3247 149.4 52.288C149.4 55.7645 146.437 57.6778 142.284 57.6778Z" fill="#F8F7F2"></path>
</svg>
