<svg width="59" height="58" xmlns="http://www.w3.org/2000/svg"><g fill="none"><path d="M18.001 49.094V28.483l-2.094-1.825-12.81-11.131a8.819 8.819 0 0 1-3.01-7.11 4.77 4.77 0 0 0-.029.445v39.514c.306-4.625 4.202-8.288 8.957-8.288 4.958 0 8.971 3.965 8.971 8.862v.144h.015zM58.06 5.113a8.817 8.817 0 0 1-2.196 10.414l-12.81 11.131-2.094 1.81V48.98c0 4.855 3.999 8.82 8.899 8.862-4.915-.043-8.884-3.993-8.884-8.862 0-4.898 4.013-8.862 8.971-8.862 4.697 0 8.535 3.548 8.942 8.087V8.877a8.6 8.6 0 0 0-.828-3.764M49.932.014a8.975 8.975 0 0 0-5.075 1.566 9.015 9.015 0 0 1 5.06-1.537c1.774 0 3.533.517 5.046 1.523C53.538.575 51.807.014 49.932.014" fill="#00ADEE"/><path d="M44.872 1.58a9.211 9.211 0 0 0-.858.66l-5.57 4.841-8.97 7.8-8.972-7.8-5.41-4.697c1.775 1.623 2.894 3.936 2.894 6.493v19.606l5.366 4.668.45.388a8.988 8.988 0 0 0 5.671 2.01 8.966 8.966 0 0 0 5.671-2.01l.45-.388 5.366-4.668V8.877c.015-3.031 1.556-5.703 3.912-7.297m10.105-.029a8.954 8.954 0 0 1 3.083 3.562 8.534 8.534 0 0 0-1.382-2.082 9.078 9.078 0 0 0-1.7-1.48" fill="#db0080"/><path d="M9.03.029a8.983 8.983 0 0 0-4.406 1.134C2.399 2.413.77 4.568.247 7.11c-.61 3.016.364 6.262 2.85 8.417l12.81 11.131 2.094 1.825V8.877a8.769 8.769 0 0 0-2.894-6.493l-.16-.143A8.916 8.916 0 0 0 9.03.029m40.902 0a8.981 8.981 0 0 0-5.06 1.537c-2.356 1.608-3.897 4.28-3.897 7.296v19.606l2.094-1.81 12.81-11.131a8.817 8.817 0 0 0 2.195-10.414 8.954 8.954 0 0 0-3.082-3.562A9.195 9.195 0 0 0 49.932.03" fill="#2E3191"/><path d="M49.96 40.103c-4.958 0-8.97 3.964-8.97 8.862 0 4.869 3.969 8.819 8.883 8.862h.059c4.929 0 8.971-3.993 8.971-8.862v-.79c-.393-4.51-4.246-8.072-8.942-8.072m-40.946-.015c-4.755 0-8.651 3.663-8.957 8.288v.603c0 3.218 1.76 6.033 4.362 7.598a9.047 9.047 0 0 0 4.595 1.25c4.958 0 8.971-3.964 8.971-8.862s-4.013-8.877-8.971-8.877" fill="#009E4F"/></g></svg>