<svg xmlns="http://www.w3.org/2000/svg" viewBox="0 0 520 520" role="img" aria-labelledby="title desc">
  <title id="title">MOtiVE 4 Artists: Working Seal concept</title>
  <desc id="desc">A slightly irregular civic seal made for programs, print, and merchandise.</desc>
  <g fill="none" fill-rule="evenodd">
    <path
      d="M260 43c125-2 212 87 216 213 3 127-86 217-214 220-127 3-216-88-218-215C42 135 133 45 260 43Z"
      stroke="#1a1a1a"
      stroke-linecap="round"
      stroke-linejoin="round"
      stroke-width="11"
    />
    <path
      d="M259 79c105-1 180 75 182 179 2 106-75 181-181 183-105 2-180-75-181-180-1-104 75-180 180-182Z"
      stroke="#1a1a1a"
      stroke-linecap="round"
      stroke-width="4"
    />
    <g fill="#e4a315">
      <rect x="246" y="25" width="28" height="43" rx="14"/>
      <rect x="452" y="246" width="43" height="28" rx="14"/>
      <rect x="246" y="452" width="28" height="43" rx="14"/>
      <rect x="25" y="246" width="43" height="28" rx="14"/>
    </g>
    <text
      x="260"
      y="170"
      fill="#1a1a1a"
      font-family="Avenir Next, Avenir, Helvetica Neue, Arial, sans-serif"
      font-size="72"
      font-weight="600"
      letter-spacing="2"
      text-anchor="middle"
    >MOtiVE</text>
    <g stroke="#e4a315" stroke-linecap="round" stroke-linejoin="round" stroke-width="15">
      <path d="m278 194-83 111h147"/>
      <path d="M291 198v143"/>
    </g>
    <text
      x="260"
      y="397"
      fill="#1a1a1a"
      font-family="Avenir Next, Avenir, Helvetica Neue, Arial, sans-serif"
      font-size="60"
      font-weight="700"
      letter-spacing="5"
      text-anchor="middle"
    >ARTISTS</text>
    <text
      x="260"
      y="426"
      fill="#1a1a1a"
      font-family="Avenir Next, Avenir, Helvetica Neue, Arial, sans-serif"
      font-size="17"
      font-weight="600"
      letter-spacing="7"
      text-anchor="middle"
    >NEW YORK</text>
  </g>
</svg>
